<?xml version="1.0" encoding="UTF-8"?>
<svg id="Capa_2" data-name="Capa 2" xmlns="http://www.w3.org/2000/svg" viewBox="0 0 437.09 459.57">
  <defs>
    <style>
      .cls-1 {
        fill: #f9f9f9;
      }
    </style>
  </defs>
  <g id="Capa_1-2" data-name="Capa 1">
    <path class="cls-1" d="M218.56,35.72c10.93,0,19.8,8.86,19.8,19.8v76.65c0,10.93-8.86,19.8-19.8,19.8s-19.8-8.86-19.8-19.8V55.52c0-10.93,8.86-19.8,19.8-19.8M218.56,0c-30.61,0-55.52,24.91-55.52,55.52v76.65c0,30.61,24.91,55.52,55.52,55.52s55.52-24.91,55.52-55.52V55.52c0-30.61-24.91-55.52-55.52-55.52h0Z"/>
    <path class="cls-1" d="M218.56,459.56C99.79,459.56,3.52,366.2.09,247.48-1.92,178.21,28.29,113.24,82.25,70.15l10.18-8.13c4.93-3.94,12.11-3.13,16.05,1.8l16.25,20.35c3.94,4.93,3.13,12.11-1.8,16.05l-10.18,8.13c-42.56,33.99-66.09,85.49-63.72,140.21,3.85,88.71,76.66,159.98,165.43,162.08,95.41,2.25,173.75-74.71,173.75-169.62,0-51.89-23.29-100.24-63.88-132.66l-10.18-8.13c-4.93-3.94-5.73-11.12-1.8-16.05l16.25-20.35c3.94-4.93,11.12-5.73,16.05-1.8l10.18,8.13c52.28,41.75,82.26,104.03,82.26,170.86,0,120.51-98.04,218.55-218.54,218.55h0Z"/>
  </g>
</svg>